# xmcd
#
# Track frame offsets:
#	150
#	19860
#	32187
#	45274
#	55924
#	69466
#	82249
#	95259
#	117206
#	127649
#	137276
#	146013
#
# Disc length: 2068 seconds
#
# Revision: 0
# Processed by: cddbd v1.4PL0 Copyright (c) Steve Scherf et al.
# Submitted via: dBpowerAMP V4.0
#
DISCID=9808120c
DTITLE=Henua Tire - Conjunto Folklórico Tierra Chilena
DYEAR=1997
DGENRE=Folklore
TTITLE0=Nacimiento De Una Raza, Etu Koro Kahi A Manu
TTITLE1=Kai Hata
TTITLE2=Ka Haro Tou Kara
TTITLE3=Ite Po Mahana Pae
TTITLE4=Kare Vanei
TTITLE5=Vini Vini
TTITLE6=Hereo Topa
TTITLE7=Konturi
TTITLE8=Ko Akuru
TTITLE9=Ate Ara
TTITLE10=Te Vahine Ana Mi
TTITLE11=Toere
EXTD=Música de Isla de Pascua
EXTT0=
EXTT1=
EXTT2=
EXTT3=
EXTT4=
EXTT5=
EXTT6=
EXTT7=
EXTT8=
EXTT9=
EXTT10=
EXTT11=
PLAYORDER=
